The.Devil.Inside.2012.CAM.SeT-CM8

Source: INFERNO thank you very much guys

Bitrate : 1273 Kbps
Video : 624 x 320
Audio : English MP3
Sample : Yes, included


 
http://www.imdb.com/title/tt1560985/


Complete name : The.Devil.Inside.2012.Cam.SeT-CM8.avi
Format : AVI
Format/Info : Audio Video Interleave
File size : 686 MiB
Duration : 1h 15mn
Overall bit rate : 1 273 Kbps
Writing library : VirtualDub build 30091/release

Video
ID : 0
Format : MPEG-4 Visual
Format profile : Advanced Simple@L5
Format settings, BVOP : 2
Format settings, QPel : No
Format settings, GMC : No warppoints
Format settings, Matrix : Default (H.263)
Codec ID : XVID
Codec ID/Hint : XviD
Duration : 1h 15mn
Bit rate : 1 134 Kbps
Width : 624 pixels
Height : 320 pixels
Display aspect ratio : 1.950
Frame rate : 29.970 fps
Color space : YUV
Chroma subsampling : 4:2:0
Bit depth : 8 bits
Scan type : Progressive
Compression mode : Lossy
Bits/(Pixel*Frame) : 0.189
Stream size : 610 MiB (89%)
Writing library : XviD 1.2.1 (UTC 2008-12-04)

Audio
ID : 1
Format : MPEG Audio
Format version : Version 1
Format profile : Layer 3
Mode : Joint stereo
Mode extension : MS Stereo
Codec ID : 55
Codec ID/Hint : MP3
Duration : 1h 15mn
Bit rate mode : Constant
Bit rate : 128 Kbps
Channel(s) : 2 channels
Sampling rate : 44.1 KHz
Compression mode : Lossy
Stream size : 68.9 MiB (10%)
Alignment : Split accross interleaves
Interleave, duration : 33 ms (1.00 video frame)
Interleave, preload duration : 500 ms


Cast

Fernanda Andrade ... Isabella Rossi
Simon Quarterman ... Father Ben Rawlings
Evan Helmuth ... Father David Keane
Ionut Grama ... Michael Schaefer
Suzan Crowley ... Maria Rossi




Storyline

In Italy, a woman becomes involved in a series of unauthorized exorcisms during her mission to discover what happened to her mother,
who allegedly murdered three people during her own exorcism.
 
http://img11.imageshack.us/img11/7866/iuhjkmnbv.png
 
http://img829.imageshack.us/img829/9416/lkjhgfdsat.png